<svg version="1.0" xmlns="http://www.w3.org/2000/svg" width="96" height="96" viewBox="0 0 72 72"><path d="M35.4 8.5c-.5 1.9-1 2.3-1.8 1.6-1.7-1.4-5.8-.5-7.3 1.6-1.9 2.5-1.6 8.4.7 12.8 1.1 2.2 2 4.1 2 4.2 0 .2-2.5.3-5.5.3H18l-.1 3.2c0 1.8-.1 5-.1 7 0 2.6-.5 3.8-1.4 3.8-1 0-1.4 1.4-1.4 5 0 3.8-.4 5-1.5 5C11 53 8 56.8 8 59.9c0 2 .9 3.6 2.6 5 2.5 2 3.9 2.1 28 2.1H64l.1-3c.3-10 .1-12-1.5-11.4-1 .4-1.3-.6-1.2-4.3.1-4.5-.1-4.8-2.6-5.1-2.6-.3-2.6-.4-1.3-3.6 1.2-2.7 1.1-3.6-.2-6.3-1.6-3.4-3.6-4.3-10.1-4.3-2.4 0-4.2-.3-4-.8 4.2-8.1 5.1-14.3 2.5-16.9-1.8-1.9-4.7-2.3-7.1-1.1-1.6.9-1.8.7-1.4-1.6.7-3.3-1-3.4-1.8-.1z"/></svg>