<svg xmlns="http://www.w3.org/2000/svg" width="26" height="22" fill="none"><path stroke="#111" stroke-linecap="round" stroke-linejoin="round" stroke-width="2" d="m24.083 18-7.75-7m-6.666 0-7.75 7M1.333 5.167l9.526 6.668c.771.54 1.157.81 1.577.914.37.093.758.093 1.128 0 .42-.104.806-.374 1.577-.914l9.526-6.668M6.933 20.333h12.134c1.96 0 2.94 0 3.689-.381a3.5 3.5 0 0 0 1.53-1.53c.38-.748.38-1.729.38-3.689V7.267c0-1.96 0-2.94-.38-3.69a3.5 3.5 0 0 0-1.53-1.529c-.75-.381-1.73-.381-3.69-.381H6.934c-1.96 0-2.94 0-3.689.381a3.5 3.5 0 0 0-1.53 1.53c-.38.748-.38 1.728-.38 3.689v7.466c0 1.96 0 2.94.38 3.69a3.5 3.5 0 0 0 1.53 1.529c.749.381 1.73.381 3.69.381Z"/></svg>