<?xml version="1.0" standalone="no"?>
<!DOCTYPE svg PUBLIC "-//W3C//DTD SVG 20010904//EN"
 "http://www.w3.org/TR/2001/REC-SVG-20010904/DTD/svg10.dtd">
<svg version="1.0" xmlns="http://www.w3.org/2000/svg"
 width="72.000000pt" height="72.000000pt" viewBox="0 0 72.000000 72.000000"
 preserveAspectRatio="xMidYMid meet">
<metadata>
Created by potrace 1.14, written by Peter Selinger 2001-2017
</metadata>
<g transform="translate(0.000000,72.000000) scale(0.100000,-0.100000)"
fill="#000000" stroke="none">
<path d="M354 635 c-5 -19 -10 -23 -18 -16 -17 14 -58 5 -73 -16 -19 -25 -16
-84 7 -128 11 -22 20 -41 20 -42 0 -2 -25 -3 -55 -3 l-55 0 -1 -32 c0 -18 -1
-50 -1 -70 0 -26 -5 -38 -14 -38 -10 0 -14 -14 -14 -50 0 -38 -4 -50 -15 -50
-25 0 -55 -38 -55 -69 0 -20 9 -36 26 -50 25 -20 39 -21 280 -21 l254 0 1 30
c3 100 1 120 -15 114 -10 -4 -13 6 -12 43 1 45 -1 48 -26 51 -26 3 -26 4 -13
36 12 27 11 36 -2 63 -16 34 -36 43 -101 43 -24 0 -42 3 -40 8 42 81 51 143
25 169 -18 19 -47 23 -71 11 -16 -9 -18 -7 -14 16 7 33 -10 34 -18 1z"/>
</g>
</svg>
